<svg width="24" height="24" viewBox="0 0 24 24" fill="none" xmlns="http://www.w3.org/2000/svg">
<path d="M11.375 20.125C10.7917 19.5417 10.5 18.8333 10.5 18C10.5 17.1667 10.7917 16.4583 11.375 15.875C11.9583 15.2917 12.6667 15 13.5 15C14.3333 15 15.0417 15.2917 15.625 15.875C16.2083 16.4583 16.5 17.1667 16.5 18C16.5 18.8333 16.2083 19.5417 15.625 20.125C15.0417 20.7083 14.3333 21 13.5 21C12.6667 21 11.9583 20.7083 11.375 20.125ZM14.2125 18.7125C14.4042 18.5208 14.5 18.2833 14.5 18C14.5 17.7167 14.4042 17.4792 14.2125 17.2875C14.0208 17.0958 13.7833 17 13.5 17C13.2167 17 12.9792 17.0958 12.7875 17.2875C12.5958 17.4792 12.5 17.7167 12.5 18C12.5 18.2833 12.5958 18.5208 12.7875 18.7125C12.9792 18.9042 13.2167 19 13.5 19C13.7833 19 14.0208 18.9042 14.2125 18.7125ZM11.6 12.4C10.5333 11.3333 10 10.0333 10 8.5C10 6.96667 10.5333 5.66667 11.6 4.6C12.6667 3.53333 13.9667 3 15.5 3C17.0333 3 18.3333 3.53333 19.4 4.6C20.4667 5.66667 21 6.96667 21 8.5C21 10.0333 20.4667 11.3333 19.4 12.4C18.3333 13.4667 17.0333 14 15.5 14C13.9667 14 12.6667 13.4667 11.6 12.4ZM17.9875 10.9875C18.6625 10.3125 19 9.48333 19 8.5C19 7.51667 18.6625 6.6875 17.9875 6.0125C17.3125 5.3375 16.4833 5 15.5 5C14.5167 5 13.6875 5.3375 13.0125 6.0125C12.3375 6.6875 12 7.51667 12 8.5C12 9.48333 12.3375 10.3125 13.0125 10.9875C13.6875 11.6625 14.5167 12 15.5 12C16.4833 12 17.3125 11.6625 17.9875 10.9875ZM6 18C4.9 18 3.95833 17.6083 3.175 16.825C2.39167 16.0417 2 15.1 2 14C2 12.9 2.39167 11.9583 3.175 11.175C3.95833 10.3917 4.9 10 6 10C7.1 10 8.04167 10.3917 8.825 11.175C9.60833 11.9583 10 12.9 10 14C10 15.1 9.60833 16.0417 8.825 16.825C8.04167 17.6083 7.1 18 6 18ZM7.4125 15.4125C7.80417 15.0208 8 14.55 8 14C8 13.45 7.80417 12.9792 7.4125 12.5875C7.02083 12.1958 6.55 12 6 12C5.45 12 4.97917 12.1958 4.5875 12.5875C4.19583 12.9792 4 13.45 4 14C4 14.55 4.19583 15.0208 4.5875 15.4125C4.97917 15.8042 5.45 16 6 16C6.55 16 7.02083 15.8042 7.4125 15.4125Z" fill="#E3E3E3"/>
</svg>
